<svg xmlns="http://www.w3.org/2000/svg" height="112.89mm" width="127mm" viewBox="0 0 450 400.00199"><style>svg{font-family:sans-serif;font-size:50px;fill:#aaffee}</style><g transform="translate(322.14 -598.08)"><path d="m-314.27 598.08h434.24c4.37 0 7.88 2.8764 7.88 6.4492v387.1c0 3.5729-3.5134 6.4492-7.8777 6.4492h-434.24c-4.3665 0-7.88-2.88-7.88-6.45v-387.1c0-3.5736 3.5135-6.45 7.8777-6.45z" style="fill:#455a64"/><text y="965.04639" x="-230.23422"><tspan y="965.04639" x="-230.23422">5</tspan></text><text y="964.97314" x="-170.40477"><tspan y="964.97314" x="-170.40477">4</tspan></text><text y="965.04639" x="-112.94353"><tspan y="965.04639" x="-112.94353">3</tspan></text><text y="964.97314" x="-55.140533"><tspan y="964.97314" x="-55.140533">2</tspan></text><text y="965.04639" x="7.5453801"><tspan y="965.04639" x="7.5453801">1</tspan></text><text y="884.97314" x="-170.40477"><tspan y="884.97314" x="-170.40477">5</tspan></text><text y="885.04639" x="-112.94353"><tspan y="885.04639" x="-112.94353">4</tspan></text><text y="884.97314" x="-55.140533"><tspan y="884.97314" x="-55.140533">3</tspan></text><text y="665.04639" x="7.5453801"><tspan y="665.04639" x="7.5453801">5</tspan></text><text y="744.97314" x="-55.140533"><tspan y="744.97314" x="-55.140533">5</tspan></text><text y="745.04639" x="7.5453801"><tspan y="745.04639" x="7.5453801">4</tspan></text><text y="815.04639" x="-112.94353"><tspan y="815.04639" x="-112.94353">5</tspan></text><text y="814.97314" x="-55.140533"><tspan y="814.97314" x="-55.140533">4</tspan></text><text y="815.04639" x="7.5453801"><tspan y="815.04639" x="7.5453801">3</tspan></text><text y="885.04639" x="7.5453801"><tspan y="885.04639" x="7.5453801">2</tspan></text></g></svg>